<svg width="24" height="25" viewBox="0 0 24 25" fill="none" xmlns="http://www.w3.org/2000/svg">
<path d="M20.9935 22.5V22.4992H20.9983V15.531C20.9983 12.1221 20.2644 9.49609 16.2792 9.49609C14.3633 9.49609 13.0777 10.5474 12.5528 11.5441H12.4974V9.81434H8.71875V22.4992H12.6533V16.2181C12.6533 14.5643 12.9668 12.9652 15.0149 12.9652C17.0328 12.9652 17.0629 14.8525 17.0629 16.3242V22.5H20.9935Z" fill="white"/>
<path d="M2.31348 9.81543H6.25281V22.5003H2.31348V9.81543Z" fill="white"/>
<path d="M4.28158 3.5C3.02204 3.5 2 4.52204 2 5.78158C2 7.04113 3.02204 8.08454 4.28158 8.08454C5.54113 8.08454 6.56317 7.04113 6.56317 5.78158C6.56238 4.52204 5.54033 3.5 4.28158 3.5V3.5Z" fill="white"/>
</svg>
