<svg width="0" height="0" class="hidden">
  <symbol  xmlns="http://www.w3.org/2000/svg" viewBox="0 0 24 25" id="arrow">
    <path d="M11.989 16.4976C11.7558 16.4981 11.5297 16.4168 11.3501 16.2678L5.36062 11.2703C5.15676 11.1007 5.02856 10.8569 5.00422 10.5926C4.97989 10.3283 5.06141 10.0652 5.23085 9.86107C5.40029 9.65695 5.64378 9.5286 5.90774 9.50423C6.1717 9.47986 6.43452 9.56148 6.63838 9.73113L11.989 14.2088L17.3397 9.89105C17.4418 9.80803 17.5593 9.74603 17.6854 9.70862C17.8115 9.6712 17.9438 9.65912 18.0746 9.67305C18.2054 9.68698 18.3321 9.72666 18.4475 9.7898C18.563 9.85294 18.6648 9.9383 18.7472 10.041C18.8386 10.1437 18.9079 10.2643 18.9506 10.3951C18.9933 10.5259 19.0086 10.6641 18.9954 10.8011C18.9823 10.9381 18.9411 11.0709 18.8743 11.1912C18.8076 11.3115 18.7167 11.4167 18.6074 11.5002L12.6179 16.3277C12.4332 16.4532 12.2117 16.513 11.989 16.4976V16.4976Z" fill="currentColor"></path>
  </symbol>
	<symbol fill="none" xmlns="http://www.w3.org/2000/svg" id="globe" viewBox="0 0 22 22">
    <path fill-rule="evenodd" clip-rule="evenodd" d="M10.9993 22C4.93308 22 0 17.0664 0 11C0 4.93358 4.93308 0 10.9993 0C17.0654 0 22 4.93358 22 11C22 17.0664 17.0654 22 10.9993 22ZM11.0228 1.26593C8.46542 1.26906 6.01373 2.29406 4.20542 4.1161C2.39712 5.93814 1.37985 8.40846 1.37674 10.9852C1.37946 13.5622 2.39656 16.0329 4.20491 17.8553C6.01325 19.6776 8.46517 20.7028 11.0228 20.706C13.5806 20.7032 16.0329 19.6782 17.8415 17.8558C19.6502 16.0334 20.6675 13.5625 20.6702 10.9852C20.6671 8.4082 19.6496 5.93766 17.841 4.11558C16.0324 2.2935 13.5803 1.26867 11.0228 1.26593Z" fill="#EAEAEA"></path>
    <path fill-rule="evenodd" clip-rule="evenodd" d="M10 0.5H11V21.5H10V0.5Z" fill="#EAEAEA"></path>
    <path fill-rule="evenodd" clip-rule="evenodd" d="M1 10H21V11H1V10Z" fill="#EAEAEA"></path>
    <path fill-rule="evenodd" clip-rule="evenodd" d="M2 6H20V7H2V6Z" fill="#EAEAEA"></path>
    <path fill-rule="evenodd" clip-rule="evenodd" d="M2 15H20V16H2V15Z" fill="#EAEAEA"></path>
    <path fill-rule="evenodd" clip-rule="evenodd" d="M10.3466 22C6.49024 20.1082 4 15.7703 4 10.948C4 6.2371 6.41005 1.93934 10.1447 0L10.8292 1.31816C7.58167 3.00784 5.48494 6.78695 5.48494 10.948C5.48494 15.2056 7.65146 19.0204 11 20.664L10.3466 22Z" fill="#EAEAEA"></path>
    <path fill-rule="evenodd" clip-rule="evenodd" d="M11.7262 22L11 20.679C14.3119 18.9826 16.4517 15.1723 16.4517 10.9716C16.4517 6.82021 14.3475 3.02788 11.0944 1.31198L11.8361 0C15.58 1.97171 18 6.27866 18 10.9716C18.0015 15.7213 15.5366 20.0492 11.7262 22Z" fill="#EAEAEA"></path>
  </symbol>
    <symbol fill="none" xmlns="http://www.w3.org/2000/svg" viewBox="0 0 24 24" id="zoom">
    <path d="M18.926 18.5533L15.1098 14.7371C17.2757 12.3654 17.1088 8.68707 14.7371 6.52123C12.3654 4.35538 8.68707 4.52226 6.52123 6.89393C4.35538 9.26561 4.52226 12.944 6.89394 15.1098C9.11494 17.1381 12.5161 17.1381 14.7371 15.1098L18.5533 18.926C18.658 19.0271 18.8248 19.0242 18.926 18.9195C19.0247 18.8174 19.0247 18.6554 18.926 18.5533ZM10.8321 16.1038C7.92202 16.1005 5.56372 13.7422 5.56039 10.8321C5.56039 7.9206 7.9206 5.56039 10.8321 5.56039C13.7436 5.56039 16.1038 7.9206 16.1038 10.8321C16.1038 13.7436 13.7436 16.1038 10.8321 16.1038Z" fill="white"></path>
  </symbol>
  <symbol xmlns="http://www.w3.org/2000/svg" viewBox="0 0 24 24" id="pin">
    <path d="M11.6669 6.68311C10.5716 6.68311 9.68359 7.57107 9.68359 8.66644C9.68359 9.76181 10.5716 10.6498 11.6669 10.6498C12.7618 10.6485 13.649 9.76127 13.6503 8.66644C13.6503 7.57107 12.7623 6.68311 11.6669 6.68311ZM11.6669 10.0831C10.8845 10.0831 10.2503 9.44883 10.2503 8.66644C10.2503 7.88405 10.8845 7.24977 11.6669 7.24977C12.4489 7.25069 13.0827 7.88444 13.0836 8.66644C13.0836 9.44883 12.4493 10.0831 11.6669 10.0831Z" fill="currentColor"></path>
    <path d="M11.6667 3C8.53704 3 6 5.53704 6 8.66667C6 11.691 11.2091 19.541 11.4309 19.8739C11.4835 19.9527 11.572 20 11.6667 20C11.7614 20 11.8498 19.9527 11.9024 19.8739C12.1242 19.541 17.3333 11.691 17.3333 8.66667C17.3333 5.53704 14.7963 3 11.6667 3ZM11.6667 19.199C10.6339 17.6061 6.56667 11.1713 6.56667 8.66667C6.56996 5.85136 8.85136 3.56996 11.6667 3.56667C14.482 3.56996 16.7634 5.85136 16.7667 8.66667C16.7667 11.1708 12.6994 17.6061 11.6667 19.199Z" fill="currentColor"></path>
  </symbol>
    <symbol fill="none" xmlns="http://www.w3.org/2000/svg" viewBox="0 0 24 24" id="more">
    <path d="M10.6875 5.41406C10.6875 5.76216 10.8258 6.096 11.0719 6.34214C11.3181 6.58828 11.6519 6.72656 12 6.72656C12.3481 6.72656 12.6819 6.58828 12.9281 6.34214C13.1742 6.096 13.3125 5.76216 13.3125 5.41406C13.3125 5.06597 13.1742 4.73213 12.9281 4.48598C12.6819 4.23984 12.3481 4.10156 12 4.10156C11.6519 4.10156 11.3181 4.23984 11.0719 4.48598C10.8258 4.73213 10.6875 5.06597 10.6875 5.41406ZM10.6875 11.9766C10.6875 12.3247 10.8258 12.6585 11.0719 12.9046C11.3181 13.1508 11.6519 13.2891 12 13.2891C12.3481 13.2891 12.6819 13.1508 12.9281 12.9046C13.1742 12.6585 13.3125 12.3247 13.3125 11.9766C13.3125 11.6285 13.1742 11.2946 12.9281 11.0485C12.6819 10.8023 12.3481 10.6641 12 10.6641C11.6519 10.6641 11.3181 10.8023 11.0719 11.0485C10.8258 11.2946 10.6875 11.6285 10.6875 11.9766ZM10.6875 18.5391C10.6875 18.8872 10.8258 19.221 11.0719 19.4671C11.3181 19.7133 11.6519 19.8516 12 19.8516C12.3481 19.8516 12.6819 19.7133 12.9281 19.4671C13.1742 19.221 13.3125 18.8872 13.3125 18.5391C13.3125 18.191 13.1742 17.8571 12.9281 17.611C12.6819 17.3648 12.3481 17.2266 12 17.2266C11.6519 17.2266 11.3181 17.3648 11.0719 17.611C10.8258 17.8571 10.6875 18.191 10.6875 18.5391Z" fill="#0096C7"></path>
  </symbol>
    <symbol fill="none" xmlns="http://www.w3.org/2000/svg" viewBox="0 0 24 24" id="heart">
    <path d="M17.4 1C15.25 1.00332 13.2359 2.05195 12 3.81113C10.7641 2.05195 8.75 1.00332 6.6 1C3.08398 1 0 4.27129 0 8C0 11.634 2.05195 15.3768 5.93438 18.824C7.7332 20.4182 9.70645 21.8039 11.8164 22.9553C11.9316 23.0146 12.0684 23.0146 12.1836 22.9553C14.2928 21.8039 16.2654 20.418 18.0637 18.824C21.948 15.3768 24 11.634 24 8C24 4.27129 20.916 1 17.4 1V1ZM12 22.1451C10.5309 21.3344 0.8 15.6703 0.8 8C0.8 4.69727 3.50996 1.8 6.6 1.8C8.69336 1.80371 10.623 2.93301 11.6516 4.75645C11.7285 4.87402 11.8596 4.94473 12 4.94473C12.1404 4.94473 12.2715 4.87402 12.3484 4.75645C13.377 2.93301 15.3066 1.80371 17.4 1.8C20.49 1.8 23.2 4.69727 23.2 8C23.2 15.6703 13.4691 21.3344 12 22.1451Z" fill="#F42C3C"></path>
  </symbol>
  <symbol fill="none" xmlns="http://www.w3.org/2000/svg" viewBox="0 0 24 25" id="whatsapp">
    <path fill-rule="evenodd" clip-rule="evenodd" d="M18.035 6.8982C16.4907 5.35254 14.4368 4.50087 12.2486 4.5C7.73991 4.5 4.0704 8.16814 4.06859 12.6769C4.06799 14.1181 4.44465 15.525 5.16049 16.765L4 21.0025L8.33633 19.8654C9.53112 20.5168 10.8763 20.8602 12.2453 20.8607H12.2487C16.757 20.8607 20.4268 17.1921 20.4286 12.6834C20.4295 10.4984 19.5794 8.44386 18.035 6.8982ZM12.2487 19.4797H12.2459C11.0259 19.4792 9.82937 19.1515 8.78547 18.5323L8.53719 18.385L5.96395 19.0598L6.65079 16.5517L6.4891 16.2946C5.80853 15.2124 5.44908 13.9616 5.44962 12.6774C5.4511 8.92996 8.50108 5.8811 12.2513 5.8811C14.0673 5.8818 15.7743 6.58973 17.058 7.87441C18.3417 9.15909 19.0482 10.8668 19.0475 12.6829C19.046 16.4306 15.9961 19.4797 12.2487 19.4797Z" fill="white"></path>
    <path d="M12.2487 19.4797H12.2459C11.0259 19.4792 9.82937 19.1515 8.78547 18.5323L8.53719 18.385L5.96395 19.0598L6.65079 16.5517L6.4891 16.2946C5.80853 15.2124 5.44908 13.9616 5.44962 12.6774C5.4511 8.92996 8.50108 5.8811 12.2513 5.8811C14.0673 5.8818 15.7743 6.58973 17.058 7.87441C18.3417 9.15909 19.0482 10.8668 19.0475 12.6829C19.046 16.4306 15.9961 19.4797 12.2487 19.4797Z" fill="white"></path>
    <path fill-rule="evenodd" clip-rule="evenodd" d="M9.50473 16.6378C9.56229 16.6726 9.68056 16.6725 9.9518 16.6723C11.1029 16.6713 12.0971 16.6677 12.8043 16.6677C16.1048 16.6677 16.018 13.1932 14.4749 12.7597C14.7009 12.3593 15.7307 11.6071 15.0938 10.0523C14.464 8.5149 11.7555 8.86378 9.90317 8.86469C9.21778 8.86478 9.32026 9.37123 9.32378 10.1587C9.32941 11.4059 9.32479 14.7818 9.32396 16.2412C9.32378 16.537 9.41305 16.5825 9.50473 16.6378ZM10.9328 15.3645C11.2444 15.3645 11.9795 15.3645 12.6096 15.3635C13.3231 15.3624 13.9585 15.0287 13.9427 14.3183C13.931 13.6492 13.4858 13.4296 12.868 13.3683C12.2794 13.3739 11.6063 13.3739 10.9328 13.3739V15.3645H10.9328ZM10.9328 12.03C12.1742 12.013 12.6532 12.0801 13.331 11.9103C13.7967 11.6459 14.0001 10.6655 13.3336 10.3325C12.8705 10.1011 11.5021 10.1803 10.9328 10.204V12.03V12.03Z" fill="#000046"></path>
  </symbol>
  <symbol fill="none" xmlns="http://www.w3.org/2000/svg" viewBox="0 0 24 25" id="youtube">
    <path d="M21.1055 7.75273C20.5925 6.84036 20.0359 6.67255 18.9025 6.60873C17.7704 6.53191 14.9234 6.5 12.4569 6.5C9.98573 6.5 7.13755 6.53191 6.00655 6.60755C4.87555 6.67255 4.31773 6.83918 3.80009 7.75273C3.27182 8.66391 3 10.2334 3 12.9965C3 12.9988 3 13 3 13C3 13.0024 3 13.0035 3 13.0035V13.0059C3 15.7572 3.27182 17.3385 3.80009 18.2402C4.31773 19.1525 4.87436 19.318 6.00536 19.3948C7.13755 19.461 9.98573 19.5 12.4569 19.5C14.9234 19.5 17.7704 19.461 18.9037 19.396C20.0371 19.3192 20.5937 19.1537 21.1066 18.2414C21.6396 17.3396 21.9091 15.7584 21.9091 13.0071C21.9091 13.0071 21.9091 13.0035 21.9091 13.0012C21.9091 13.0012 21.9091 12.9988 21.9091 12.9976C21.9091 10.2334 21.6396 8.66391 21.1055 7.75273Z" fill="white"></path>
    <path d="M10.0898 16.546V9.45508L15.9989 13.0005L10.0898 16.546Z" fill="#000046"></path>
  </symbol>
  <symbol fill="none" xmlns="http://www.w3.org/2000/svg" viewBox="0 0 24 25" id="facebook">
    <path d="M14.9918 5.15292H17V1.65492C16.6535 1.60725 15.462 1.5 14.0742 1.5C7.72044 1.5 9.44913 8.69583 9.19615 9.75H6V13.6605H9.19523V23.5H13.1127V13.6614H16.1787L16.6654 9.75092H13.1118C13.2841 7.16225 12.4143 5.15292 14.9918 5.15292Z" fill="white"></path>
  </symbol>
  <symbol fill="none" xmlns="http://www.w3.org/2000/svg" viewBox="0 0 24 25" id="inst">
    <path d="M20.9459 8.78937C20.9021 7.83136 20.7499 7.17712 20.5275 6.60474C20.3015 6.0042 19.9472 5.46024 19.4894 5.01062C19.0399 4.55276 18.4958 4.19832 17.8953 3.97227C17.3227 3.74994 16.6686 3.59792 15.7106 3.55438C14.7508 3.51044 14.4442 3.5 12 3.5C9.55582 3.5 9.24916 3.51044 8.28937 3.55411C7.33136 3.59792 6.67726 3.75008 6.10474 3.97255C5.5042 4.19846 4.96024 4.55276 4.51062 5.01062C4.05276 5.4601 3.69832 6.00406 3.47227 6.6046C3.24994 7.17712 3.09792 7.83136 3.05438 8.78923C3.01044 9.74916 3 10.0557 3 12.4999C3 14.9442 3.01044 15.2508 3.05438 16.2106C3.09805 17.1685 3.25021 17.8227 3.47269 18.3953C3.69859 18.9957 4.0529 19.5398 4.51076 19.9892C4.96024 20.4471 5.50433 20.8014 6.10487 21.0273C6.67726 21.2499 7.3315 21.4019 8.28951 21.4458C9.24944 21.4896 9.55595 21.4999 12.0001 21.4999C14.4443 21.4999 14.751 21.4896 15.7108 21.4458C16.6688 21.4019 17.3229 21.2499 17.8954 21.0273C19.1043 20.5598 20.06 19.6042 20.5275 18.3953C20.7501 17.8227 20.9021 17.1685 20.9459 16.2106C20.9896 15.2507 21 14.9442 21 12.5C21 10.0557 20.9896 9.74916 20.9459 8.78937ZM19.3258 16.1369C19.2859 17.0144 19.1392 17.491 19.016 17.808C18.7132 18.593 18.0929 19.2133 17.3079 19.5161C16.9908 19.6393 16.5143 19.786 15.6367 19.826C14.6879 19.8694 14.4033 19.8784 12 19.8784C9.5966 19.8784 9.31206 19.8694 8.36311 19.826C7.48572 19.786 7.00919 19.6393 6.69196 19.5161C6.30112 19.3718 5.94749 19.1418 5.65718 18.8428C5.35822 18.5525 5.12819 18.199 4.98386 17.808C4.86067 17.491 4.714 17.0144 4.67404 16.1369C4.63078 15.1879 4.62158 14.9033 4.62158 12.5001C4.62158 10.0969 4.63078 9.81233 4.67404 8.86325C4.71414 7.98572 4.86067 7.50919 4.98386 7.19209C5.12819 6.80112 5.35835 6.44749 5.65718 6.15718C5.94749 5.85822 6.30112 5.62819 6.69209 5.48399C7.00919 5.36067 7.48572 5.21414 8.36325 5.17404C9.31219 5.13078 9.59688 5.12158 12 5.12158H11.9999C14.403 5.12158 14.6877 5.13078 15.6367 5.17418C16.5143 5.21414 16.9907 5.36081 17.3079 5.48399C17.6987 5.62833 18.0524 5.85835 18.3427 6.15718C18.6416 6.44749 18.8717 6.80112 19.0159 7.19209C19.1392 7.50919 19.2859 7.98572 19.3258 8.86325C19.3691 9.81219 19.3783 10.0969 19.3783 12.5C19.3783 14.9033 19.3692 15.1878 19.3258 16.1369Z" fill="white"></path>
    <path d="M11.9995 7.87793C9.44707 7.87793 7.37793 9.9472 7.37793 12.4996C7.37793 15.052 9.44707 17.1211 11.9995 17.1211C14.552 17.1211 16.6211 15.052 16.6211 12.4996C16.6211 9.9472 14.552 7.87793 11.9995 7.87793ZM11.9995 15.4996C10.3427 15.4994 8.99951 14.1563 8.99965 12.4995C8.99965 10.8427 10.3427 9.49951 11.9996 9.49951C13.6565 9.49965 14.9996 10.8427 14.9996 12.4995C14.9996 14.1563 13.6563 15.4996 11.9995 15.4996Z" fill="white"></path>
    <path d="M17.8827 7.69533C17.8827 8.29175 17.3992 8.77528 16.8027 8.77528C16.2062 8.77528 15.7227 8.29175 15.7227 7.69533C15.7227 7.09877 16.2062 6.61523 16.8027 6.61523C17.3992 6.61523 17.8827 7.09877 17.8827 7.69533Z" fill="white"></path>
  </symbol>
  <symbol fill="none" xmlns="http://www.w3.org/2000/svg" viewBox="0 0 24 25" id="linkedin">
    <path d="M20.9935 22.5V22.4992H20.9983V15.531C20.9983 12.1221 20.2644 9.49609 16.2792 9.49609C14.3633 9.49609 13.0777 10.5474 12.5528 11.5441H12.4974V9.81434H8.71875V22.4992H12.6533V16.2181C12.6533 14.5643 12.9668 12.9652 15.0149 12.9652C17.0328 12.9652 17.0629 14.8525 17.0629 16.3242V22.5H20.9935Z" fill="white"></path>
    <path d="M2.31348 9.81543H6.25281V22.5003H2.31348V9.81543Z" fill="white"></path>
    <path d="M4.28158 3.5C3.02204 3.5 2 4.52204 2 5.78158C2 7.04113 3.02204 8.08454 4.28158 8.08454C5.54113 8.08454 6.56317 7.04113 6.56317 5.78158C6.56238 4.52204 5.54033 3.5 4.28158 3.5V3.5Z" fill="white"></path>
  </symbol>
  <symbol fill="none" xmlns="http://www.w3.org/2000/svg" viewBox="0 0 19 17" id="twitter">
    <path d="M19 2.39415C18.2934 2.71538 17.5406 2.92831 16.7556 3.03169C17.5631 2.532 18.1794 1.74677 18.4692 0.800308C17.7163 1.26554 16.8851 1.59415 15.9992 1.77754C15.2843 0.988616 14.2654 0.5 13.1539 0.5C10.9974 0.5 9.26131 2.31415 9.26131 4.53815C9.26131 4.85815 9.28744 5.16585 9.35156 5.45877C6.11325 5.29508 3.24781 3.68646 1.32287 1.236C0.986812 1.84031 0.789688 2.532 0.789688 3.27662C0.789688 4.67477 1.48438 5.91415 2.51988 6.63169C1.89406 6.61938 1.28013 6.43108 0.76 6.13446C0.76 6.14677 0.76 6.16277 0.76 6.17877C0.76 8.14062 2.11019 9.77015 3.88075 10.1455C3.56369 10.2354 3.21812 10.2785 2.8595 10.2785C2.61013 10.2785 2.35837 10.2637 2.12206 10.2095C2.62675 11.8083 4.05888 12.9837 5.76175 13.0218C4.4365 14.0963 2.75381 14.7437 0.932188 14.7437C0.61275 14.7437 0.306375 14.7289 0 14.6883C1.72544 15.8415 3.77031 16.5 5.9755 16.5C13.1432 16.5 17.062 10.3462 17.062 5.012C17.062 4.83354 17.0561 4.66123 17.0478 4.49015C17.8208 3.92154 18.4704 3.21138 19 2.39415Z" fill="white"></path>
  </symbol>
    <symbol fill="none" xmlns="http://www.w3.org/2000/svg" viewBox="0 0 24 24" id="photo">
    <path d="M17 2H7C6.20435 2 5.44129 2.31607 4.87868 2.87868C4.31607 3.44129 4 4.20435 4 5V19C4 19.7956 4.31607 20.5587 4.87868 21.1213C5.44129 21.6839 6.20435 22 7 22H17C17.7956 22 18.5587 21.6839 19.1213 21.1213C19.6839 20.5587 20 19.7956 20 19V5C20 4.20435 19.6839 3.44129 19.1213 2.87868C18.5587 2.31607 17.7956 2 17 2ZM18 19C18 19.2652 17.8946 19.5196 17.7071 19.7071C17.5196 19.8946 17.2652 20 17 20H7C6.73478 20 6.48043 19.8946 6.29289 19.7071C6.10536 19.5196 6 19.2652 6 19V5C6 4.73478 6.10536 4.48043 6.29289 4.29289C6.48043 4.10536 6.73478 4 7 4H17C17.2652 4 17.5196 4.10536 17.7071 4.29289C17.8946 4.48043 18 4.73478 18 5V19ZM14.38 10.8C14.7766 10.2832 14.9942 9.6514 15 9C15 8.20435 14.6839 7.44129 14.1213 6.87868C13.5587 6.31607 12.7956 6 12 6C11.2044 6 10.4413 6.31607 9.87868 6.87868C9.31607 7.44129 9 8.20435 9 9C9.00576 9.6514 9.22339 10.2832 9.62 10.8C8.94354 11.3008 8.44228 12.0022 8.18756 12.8044C7.93285 13.6066 7.93768 14.4687 8.20134 15.268C8.46501 16.0673 8.97408 16.763 9.6561 17.2562C10.3381 17.7494 11.1583 18.0149 12 18.0149C12.8417 18.0149 13.6619 17.7494 14.3439 17.2562C15.0259 16.763 15.535 16.0673 15.7987 15.268C16.0623 14.4687 16.0671 13.6066 15.8124 12.8044C15.5577 12.0022 15.0565 11.3008 14.38 10.8ZM12 8C12.1978 8 12.3911 8.05865 12.5556 8.16853C12.72 8.27841 12.8482 8.43459 12.9239 8.61732C12.9996 8.80004 13.0194 9.00111 12.9808 9.19509C12.9422 9.38907 12.847 9.56725 12.7071 9.70711C12.5673 9.84696 12.3891 9.9422 12.1951 9.98079C12.0011 10.0194 11.8 9.99957 11.6173 9.92388C11.4346 9.84819 11.2784 9.72002 11.1685 9.55557C11.0586 9.39112 11 9.19778 11 9C11 8.73478 11.1054 8.48043 11.2929 8.29289C11.4804 8.10536 11.7348 8 12 8ZM12 16C11.6044 16 11.2178 15.8827 10.8889 15.6629C10.56 15.4432 10.3036 15.1308 10.1522 14.7654C10.0009 14.3999 9.96126 13.9978 10.0384 13.6098C10.1156 13.2219 10.3061 12.8655 10.5858 12.5858C10.8655 12.3061 11.2219 12.1156 11.6098 12.0384C11.9978 11.9613 12.3999 12.0009 12.7654 12.1522C13.1308 12.3036 13.4432 12.56 13.6629 12.8889C13.8827 13.2178 14 13.6044 14 14C14 14.5304 13.7893 15.0391 13.4142 15.4142C13.0391 15.7893 12.5304 16 12 16Z" fill="#202020"></path>
  </symbol>
  <symbol fill="none" xmlns="http://www.w3.org/2000/svg" viewBox="0 0 24 24" id="hat">
    <path d="M21.4899 10.1901L20.4899 9.64008L11.4899 4.64008H11.3799C11.3186 4.61416 11.255 4.59407 11.1899 4.58008H10.9999H10.8199C10.7516 4.59408 10.6846 4.61416 10.6199 4.64008H10.5099L1.50988 9.64008C1.35598 9.7273 1.22797 9.85378 1.13891 10.0066C1.04985 10.1595 1.00293 10.3332 1.00293 10.5101C1.00293 10.687 1.04985 10.8607 1.13891 11.0135C1.22797 11.1664 1.35598 11.2929 1.50988 11.3801L3.99988 12.7601V17.5001C3.99988 18.2957 4.31595 19.0588 4.87856 19.6214C5.44117 20.184 6.20423 20.5001 6.99988 20.5001H14.9999C15.7955 20.5001 16.5586 20.184 17.1212 19.6214C17.6838 19.0588 17.9999 18.2957 17.9999 17.5001V12.7601L19.9999 11.6401V14.5001C19.9999 14.7653 20.1052 15.0196 20.2928 15.2072C20.4803 15.3947 20.7347 15.5001 20.9999 15.5001C21.2651 15.5001 21.5194 15.3947 21.707 15.2072C21.8945 15.0196 21.9999 14.7653 21.9999 14.5001V11.0601C21.9996 10.8829 21.9522 10.7089 21.8626 10.5561C21.773 10.4032 21.6443 10.2769 21.4899 10.1901ZM15.9999 17.5001C15.9999 17.7653 15.8945 18.0196 15.707 18.2072C15.5194 18.3947 15.2651 18.5001 14.9999 18.5001H6.99988C6.73466 18.5001 6.48031 18.3947 6.29277 18.2072C6.10524 18.0196 5.99988 17.7653 5.99988 17.5001V13.8701L10.5099 16.3701L10.6599 16.4301H10.7499C10.8329 16.4405 10.9169 16.4405 10.9999 16.4301C11.0829 16.4405 11.1669 16.4405 11.2499 16.4301H11.3399C11.393 16.4189 11.4437 16.3986 11.4899 16.3701L15.9999 13.8701V17.5001ZM10.9999 14.3601L4.05988 10.5001L10.9999 6.64008L17.9399 10.5001L10.9999 14.3601Z" fill="#202020"></path>
  </symbol>
 <symbol fill="none" xmlns="http://www.w3.org/2000/svg" viewBox="0 0 24 24" id="ru">
    <path d="M0 4V9.3333V14.6666V19.9999H24V14.6666V9.3333V4H0Z" fill="#F0F0F0"></path>
    <path d="M24 4H0V20.0002H24V4Z" fill="#0052B4"></path>
    <path d="M24 4H0V9.33321H24V4Z" fill="#F0F0F0"></path>
    <path d="M24 14.668H0V20.0012H24V14.668Z" fill="#D80027"></path>
  </symbol>
  <symbol fill="none" xmlns="http://www.w3.org/2000/svg" viewBox="0 0 24 24" id="ua">
    <path d="M24 4H0V19.9997H24V4Z" fill="#FBC53C"></path>
    <path d="M24 4H0V11.9998H24V4Z" fill="#338AF3"></path>
  </symbol>
  <symbol fill="none" xmlns="http://www.w3.org/2000/svg" viewBox="0 0 24 24" id="de">
    <path d="M24 4H0V20.0002H24V4Z" fill="#D80027"></path>
    <path d="M24 4H0V9.33321H24V4Z" fill="black"></path>
    <path d="M24 14.668H0V20.0012H24V14.668Z" fill="#FBC53C"></path>
  </symbol>
  <symbol fill="none" xmlns="http://www.w3.org/2000/svg" viewBox="0 0 24 24" id="en">
    <path d="M0 4H24V20.0002H0V4Z" fill="#F0F0F0"></path>
    <path d="M10.5 4H13.5V10.5H24V13.5H13.5V19.9999H10.5V13.5H0V10.5H10.5V4Z" fill="#D80027"></path>
    <path d="M5.54199 14.7822L0.000659943 17.8608V14.7822H5.54199Z" fill="#0052B4"></path>
    <path d="M9.3916 14.7822L0.000292778 19.9996V18.5243L6.7359 14.7822H9.3916Z" fill="#0052B4"></path>
    <path d="M2.50182 20.0008L9.3916 16.1729V20.0008H2.50182Z" fill="#0052B4"></path>
    <path d="M9.3916 14.7822L0.000292778 19.9996V18.5243L6.7359 14.7822H9.3916Z" fill="#F0F0F0"></path>
    <path d="M9.3916 14.7822L0.000292778 19.9996V18.5243L6.7359 14.7822H9.3916Z" fill="#D80027"></path>
    <path d="M19.7653 14.7822L24 17.1349V14.7822H19.7653Z" fill="#0052B4"></path>
    <path d="M14.6083 15.4453V19.9993H22.8047L14.6083 15.4453Z" fill="#0052B4"></path>
    <path d="M17.2644 14.7822L24 18.5243V19.9996L14.6087 14.7822H17.2644Z" fill="#D80027"></path>
    <path d="M18.4587 9.21528L24 6.13672V9.21528H18.4587Z" fill="#0052B4"></path>
    <path d="M14.6087 9.21737L24 4V5.47534L17.2644 9.21737H14.6087Z" fill="#0052B4"></path>
    <path d="M21.498 4L14.6083 7.828V4H21.498Z" fill="#0052B4"></path>
    <path d="M14.6087 9.21737L24 4V5.47534L17.2644 9.21737H14.6087Z" fill="#F0F0F0"></path>
    <path d="M14.6087 9.21737L24 4V5.47534L17.2644 9.21737H14.6087Z" fill="#D80027"></path>
    <path d="M4.23438 9.21594L-0.000358582 6.86328V9.21594H4.23438Z" fill="#0052B4"></path>
    <path d="M9.3916 8.55395V4H1.19518L9.3916 8.55395Z" fill="#0052B4"></path>
    <path d="M6.7359 9.21737L0.000292778 5.47534V4L9.3916 9.21737H6.7359Z" fill="#D80027"></path>
  </symbol>
  <symbol fill="none" xmlns="http://www.w3.org/2000/svg" viewBox="0 0 24 24" id="pl">
    <path d="M24 4H0V19.9997H24V4Z" fill="#F0F0F0"></path>
    <path d="M24 4H0V11.9998H24V4Z" fill="#F0F0F0"></path>
    <path d="M24 12H0V19.9998H24V12Z" fill="#D80027"></path>
  </symbol>
    <symbol fill="none" xmlns="http://www.w3.org/2000/svg" viewBox="0 0 24 24" id="es">
    <path d="M24 4H0V20.0002H24V4Z" fill="#FBC53C"></path>
    <path d="M24 4H0V9.33321H24V4Z" fill="#D80027"></path>
    <path d="M24 14.668H0V20.0012H24V14.668Z" fill="#D80027"></path>
  </symbol>
  <symbol fill="none" xmlns="http://www.w3.org/2000/svg" viewBox="0 0 25 24" id="user">
    <path d="M12.2734 3C9.70167 3 7.60938 5.0923 7.60938 7.66406C7.60938 10.2358 9.70167 12.3281 12.2734 12.3281C14.8452 12.3281 16.9375 10.2358 16.9375 7.66406C16.9375 5.0923 14.8452 3 12.2734 3Z" fill="white"></path>
    <path d="M18.0764 15.3753C16.7995 14.0788 15.1067 13.3647 13.3099 13.3647H11.237C9.44018 13.3647 7.74736 14.0788 6.47045 15.3753C5.19978 16.6655 4.5 18.3685 4.5 20.1708C4.5 20.457 4.73203 20.6891 5.01823 20.6891H19.5286C19.8148 20.6891 20.0469 20.457 20.0469 20.1708C20.0469 18.3685 19.3471 16.6655 18.0764 15.3753Z" fill="white"></path>
  </symbol>
   <symbol fill="none" xmlns="http://www.w3.org/2000/svg" viewBox="0 0 27 26" id="filter">
    <path fill-rule="evenodd" clip-rule="evenodd" d="M7.30779 22C7.5875 20.9163 8.57246 20.1143 9.74286 20.1143C10.9133 20.1143 11.8982 20.9163 12.1779 22H25.7714C25.8594 22 25.9462 22.0182 26.0266 22.054C26.1014 22.0873 26.1699 22.1357 26.2265 22.1948C26.2806 22.2514 26.3239 22.3187 26.3535 22.3909C26.3805 22.4576 26.3962 22.5286 26.3993 22.6002C26.4025 22.6688 26.3943 22.7379 26.3748 22.8045C26.3579 22.863 26.3321 22.9189 26.2988 22.9705C26.2259 23.083 26.1165 23.1704 25.9908 23.2175C25.9223 23.2433 25.8487 23.2565 25.7752 23.2571H25.7714H12.1779C11.8982 24.3408 10.9133 25.1428 9.74286 25.1428C8.57246 25.1428 7.5875 24.3408 7.30779 23.2571H0.628592C0.555049 23.2571 0.48151 23.2445 0.412368 23.2188C0.285396 23.1722 0.174771 23.0843 0.101228 22.9705C0.0679141 22.9189 0.0421413 22.863 0.0251699 22.8045C0.0056842 22.7379 -0.00248814 22.6688 0.000654712 22.6002C0.00379756 22.5286 0.0195106 22.4576 0.0465391 22.3909C0.0760819 22.3187 0.119451 22.2514 0.173508 22.1948C0.230079 22.1357 0.298589 22.0873 0.373389 22.054C0.453846 22.0182 0.540592 22 0.628592 22H7.30779ZM9.74286 21.3714C10.4368 21.3714 11 21.9346 11 22.6285C11 23.3225 10.4368 23.8857 9.74286 23.8857C9.04892 23.8857 8.48572 23.3225 8.48572 22.6285C8.48572 21.9346 9.04892 21.3714 9.74286 21.3714ZM17.3649 11.9428C17.6446 10.8592 18.6296 10.0571 19.8 10.0571C20.9704 10.0571 21.9554 10.8592 22.2351 11.9428H25.7714C25.8594 11.9428 25.9462 11.9611 26.0266 11.9969C26.1014 12.0302 26.1699 12.0786 26.2265 12.1377C26.2806 12.1943 26.3239 12.2615 26.3535 12.3338C26.3805 12.4004 26.3962 12.4715 26.3993 12.5431C26.4025 12.6116 26.3943 12.6808 26.3748 12.7474C26.3579 12.8059 26.3321 12.8618 26.2988 12.9134C26.2259 13.0259 26.1165 13.1132 25.9908 13.1604C25.9223 13.1862 25.8487 13.1993 25.7752 13.2H25.7714H22.2351C21.9554 14.2836 20.9704 15.0857 19.8 15.0857C18.6296 15.0857 17.6446 14.2836 17.3649 13.2H0.628592C0.540592 13.2 0.453846 13.1818 0.373389 13.1459C0.298589 13.1126 0.230079 13.0642 0.173508 13.0051C0.119451 12.9486 0.0760819 12.8813 0.0465391 12.809C0.0195106 12.7424 0.00379756 12.6714 0.000654712 12.5997C-0.00248814 12.5312 0.0056842 12.462 0.0251699 12.3954C0.0421413 12.337 0.0679141 12.281 0.101228 12.2295C0.174771 12.1157 0.285396 12.0277 0.412368 11.9812C0.48151 11.9554 0.555049 11.9428 0.628592 11.9428H17.3649ZM19.8 11.3143C20.4939 11.3143 21.0571 11.8775 21.0571 12.5714C21.0571 13.2653 20.4939 13.8285 19.8 13.8285C19.106 13.8285 18.5428 13.2653 18.5428 12.5714C18.5428 11.8775 19.106 11.3143 19.8 11.3143ZM3.22208 1.88571C3.50179 0.802056 4.48676 0 5.65716 0C6.82755 0 7.81252 0.802056 8.09223 1.88571H25.7714C25.8594 1.88571 25.9462 1.90394 26.0266 1.93977C26.1014 1.97308 26.1699 2.02148 26.2265 2.08057C26.2806 2.13714 26.3239 2.20439 26.3535 2.27668C26.3805 2.34331 26.3962 2.41434 26.3993 2.486C26.4025 2.55451 26.3943 2.62365 26.3748 2.69028C26.3579 2.74874 26.3321 2.80469 26.2988 2.85623C26.2259 2.96874 26.1165 3.05611 25.9908 3.10325C25.9223 3.12902 25.8487 3.14222 25.7752 3.14285H25.7714H8.09223C7.81252 4.22651 6.82755 5.02856 5.65716 5.02856C4.48676 5.02856 3.50179 4.22651 3.22208 3.14285H0.628592C0.555049 3.14285 0.48151 3.13028 0.412368 3.10451C0.285396 3.05799 0.174771 2.97 0.101228 2.85623C0.0679141 2.80469 0.0421413 2.74874 0.0251699 2.69028C0.0056842 2.62365 -0.00248814 2.55451 0.000654712 2.486C0.00379756 2.41434 0.0195106 2.34331 0.0465391 2.27668C0.0760819 2.20439 0.119451 2.13714 0.173508 2.08057C0.230079 2.02148 0.298589 1.97308 0.373389 1.93977C0.453846 1.90394 0.540592 1.88571 0.628592 1.88571H3.22208ZM5.65716 1.25714C6.3511 1.25714 6.9143 1.82034 6.9143 2.51428C6.9143 3.20822 6.3511 3.77142 5.65716 3.77142C4.96321 3.77142 4.40001 3.20822 4.40001 2.51428C4.40001 1.82034 4.96321 1.25714 5.65716 1.25714Z" fill="#000046"></path>
  </symbol>

   <symbol fill="none" xmlns="http://www.w3.org/2000/svg" viewBox="0 0 24 24" id="cross">
    <path d="M13.4099 12.0002L19.7099 5.71019C19.8982 5.52188 20.004 5.26649 20.004 5.00019C20.004 4.73388 19.8982 4.47849 19.7099 4.29019C19.5216 4.10188 19.2662 3.99609 18.9999 3.99609C18.7336 3.99609 18.4782 4.10188 18.2899 4.29019L11.9999 10.5902L5.70994 4.29019C5.52164 4.10188 5.26624 3.99609 4.99994 3.99609C4.73364 3.99609 4.47824 4.10188 4.28994 4.29019C4.10164 4.47849 3.99585 4.73388 3.99585 5.00019C3.99585 5.26649 4.10164 5.52188 4.28994 5.71019L10.5899 12.0002L4.28994 18.2902C4.19621 18.3831 4.12182 18.4937 4.07105 18.6156C4.02028 18.7375 3.99414 18.8682 3.99414 19.0002C3.99414 19.1322 4.02028 19.2629 4.07105 19.3848C4.12182 19.5066 4.19621 19.6172 4.28994 19.7102C4.3829 19.8039 4.4935 19.8783 4.61536 19.9291C4.73722 19.9798 4.86793 20.006 4.99994 20.006C5.13195 20.006 5.26266 19.9798 5.38452 19.9291C5.50638 19.8783 5.61698 19.8039 5.70994 19.7102L11.9999 13.4102L18.2899 19.7102C18.3829 19.8039 18.4935 19.8783 18.6154 19.9291C18.7372 19.9798 18.8679 20.006 18.9999 20.006C19.132 20.006 19.2627 19.9798 19.3845 19.9291C19.5064 19.8783 19.617 19.8039 19.7099 19.7102C19.8037 19.6172 19.8781 19.5066 19.9288 19.3848C19.9796 19.2629 20.0057 19.1322 20.0057 19.0002C20.0057 18.8682 19.9796 18.7375 19.9288 18.6156C19.8781 18.4937 19.8037 18.3831 19.7099 18.2902L13.4099 12.0002Z" fill="#000046"></path>
  </symbol>
</svg>